<?xml version="1.0" encoding="UTF-8"?>
<svg width="1200" height="675" viewBox="0 0 1200 675" fill="none" xmlns="http://www.w3.org/2000/svg">
  <defs>
    <linearGradient id="bg" x1="0" y1="0" x2="1200" y2="675" gradientUnits="userSpaceOnUse">
      <stop stop-color="#111827"/>
      <stop offset="1" stop-color="#1D4ED8"/>
    </linearGradient>
  </defs>

  <rect width="1200" height="675" fill="url(#bg)"/>
  <circle cx="1030" cy="96" r="220" fill="#ffffff" fill-opacity="0.09"/>
  <circle cx="930" cy="640" r="210" fill="#ffffff" fill-opacity="0.08"/>

  <rect x="64" y="64" width="1072" height="547" rx="24" fill="#ffffff" fill-opacity="0.08" stroke="#ffffff" stroke-opacity="0.25"/>

  <rect x="730" y="120" width="390" height="360" rx="20" fill="#ffffff" fill-opacity="0.12" stroke="#ffffff" stroke-opacity="0.25"/>
      <rect x="770" y="178" width="318" height="150" rx="12" fill="#E7EEFF" fill-opacity="0.30"/>
      <line x1="830" y1="178" x2="830" y2="328" stroke="#CFDAFF" stroke-width="4"/>
      <line x1="930" y1="178" x2="930" y2="328" stroke="#CFDAFF" stroke-width="4"/>
      <line x1="1030" y1="178" x2="1030" y2="328" stroke="#CFDAFF" stroke-width="4"/>
      <line x1="770" y1="228" x2="1088" y2="228" stroke="#CFDAFF" stroke-width="4"/>
      <line x1="770" y1="278" x2="1088" y2="278" stroke="#CFDAFF" stroke-width="4"/>
      <rect x="768" y="340" width="320" height="98" rx="12" fill="#E7EEFF" fill-opacity="0.16"/>
      <circle cx="840" cy="388" r="12" fill="#D2DEFF"/>
      <circle cx="896" cy="388" r="12" fill="#D2DEFF"/>
      <circle cx="952" cy="388" r="12" fill="#D2DEFF"/>

  <rect x="104" y="102" width="280" height="52" rx="26" fill="#ffffff" fill-opacity="0.18"/>
  <text x="244" y="136" fill="#E6F8FF" font-family="Arial, Helvetica, sans-serif" font-size="24" font-weight="700" text-anchor="middle">AUDITORIA LÍDER</text>

  <text x="104" y="258" fill="#ffffff" font-family="Arial, Helvetica, sans-serif" font-size="66" font-weight="800">Curso Auditor Líder ISO 31000</text>
  

  <text x="104" y="414" fill="#D7F3FF" font-family="Arial, Helvetica, sans-serif" font-size="33" font-weight="500">Auditoria Líder em Gestão de Riscos</text>

  <text x="104" y="458" fill="#E8FBFF" font-family="Arial, Helvetica, sans-serif" font-size="26" font-weight="600">Cenário: Liderança em governança e gestão de riscos corporativos</text>

  <rect x="104" y="492" width="992" height="2" fill="#ffffff" fill-opacity="0.35"/>

  <text x="104" y="548" fill="#ffffff" font-family="Arial, Helvetica, sans-serif" font-size="30" font-weight="700">ISOAcademy</text>
  <text x="104" y="586" fill="#D7F3FF" font-family="Arial, Helvetica, sans-serif" font-size="24">Especialização em Normas e Sistemas de Gestão</text>

  <text x="1096" y="586" fill="#D7F3FF" font-family="Arial, Helvetica, sans-serif" font-size="22" text-anchor="end">auditor-lider-31000</text>
</svg>