<?xml version="1.0" encoding="UTF-8"?>
<svg width="1200" height="675" viewBox="0 0 1200 675" fill="none" xmlns="http://www.w3.org/2000/svg">
  <defs>
    <linearGradient id="bg" x1="0" y1="0" x2="1200" y2="675" gradientUnits="userSpaceOnUse">
      <stop stop-color="#0F172A"/>
      <stop offset="1" stop-color="#0369A1"/>
    </linearGradient>
  </defs>

  <rect width="1200" height="675" fill="url(#bg)"/>
  <circle cx="1030" cy="96" r="220" fill="#ffffff" fill-opacity="0.09"/>
  <circle cx="930" cy="640" r="210" fill="#ffffff" fill-opacity="0.08"/>

  <rect x="64" y="64" width="1072" height="547" rx="24" fill="#ffffff" fill-opacity="0.08" stroke="#ffffff" stroke-opacity="0.25"/>

  <rect x="730" y="120" width="390" height="360" rx="20" fill="#ffffff" fill-opacity="0.12" stroke="#ffffff" stroke-opacity="0.25"/>
      <rect x="768" y="350" width="320" height="86" rx="12" fill="#E9FAFF" fill-opacity="0.16"/>
      <path d="M840 192V252L804 310C798 319 804 332 816 332H864C876 332 882 319 876 310L840 252V192" fill="#D2F4FF" fill-opacity="0.35"/>
      <path d="M975 190V242L948 290C942 298 948 310 960 310H990C1002 310 1008 298 1002 290L975 242V190" fill="#D2F4FF" fill-opacity="0.35"/>
      <circle cx="1045" cy="248" r="34" fill="#D2F4FF" fill-opacity="0.28"/>
      <line x1="1031" y1="248" x2="1059" y2="248" stroke="#BFEFFF" stroke-width="6"/>
      <line x1="1045" y1="234" x2="1045" y2="262" stroke="#BFEFFF" stroke-width="6"/>

  <rect x="104" y="102" width="280" height="52" rx="26" fill="#ffffff" fill-opacity="0.18"/>
  <text x="244" y="136" fill="#E6F8FF" font-family="Arial, Helvetica, sans-serif" font-size="24" font-weight="700" text-anchor="middle">AUDITORIA INTERNA</text>

  <text x="104" y="258" fill="#ffffff" font-family="Arial, Helvetica, sans-serif" font-size="66" font-weight="800">Curso Auditor Interno ISO/IEC 17025</text>
  

  <text x="104" y="414" fill="#D7F3FF" font-family="Arial, Helvetica, sans-serif" font-size="33" font-weight="500">Formação de Auditor Interno para Laboratórios</text>

  <text x="104" y="458" fill="#E8FBFF" font-family="Arial, Helvetica, sans-serif" font-size="26" font-weight="600">Cenário: Auditoria interna em laboratório de ensaio e calibração</text>

  <rect x="104" y="492" width="992" height="2" fill="#ffffff" fill-opacity="0.35"/>

  <text x="104" y="548" fill="#ffffff" font-family="Arial, Helvetica, sans-serif" font-size="30" font-weight="700">ISOAcademy</text>
  <text x="104" y="586" fill="#D7F3FF" font-family="Arial, Helvetica, sans-serif" font-size="24">Especialização em Normas e Sistemas de Gestão</text>

  <text x="1096" y="586" fill="#D7F3FF" font-family="Arial, Helvetica, sans-serif" font-size="22" text-anchor="end">auditor-interno-17025</text>
</svg>