<?xml version="1.0" encoding="UTF-8"?>
<svg width="1200" height="675" viewBox="0 0 1200 675" fill="none" xmlns="http://www.w3.org/2000/svg">
  <defs>
    <linearGradient id="bg" x1="0" y1="0" x2="1200" y2="675" gradientUnits="userSpaceOnUse">
      <stop stop-color="#0F172A"/>
      <stop offset="1" stop-color="#0369A1"/>
    </linearGradient>
    <radialGradient id="glow" cx="0" cy="0" r="1" gradientUnits="userSpaceOnUse" gradientTransform="translate(248 190) rotate(28) scale(460 300)">
      <stop stop-color="#FFFFFF" stop-opacity="0.35"/>
      <stop offset="1" stop-color="#FFFFFF" stop-opacity="0"/>
    </radialGradient>
    <pattern id="grid" width="26" height="26" patternUnits="userSpaceOnUse">
      <path d="M26 0H0V26" fill="none" stroke="#FFFFFF" stroke-opacity="0.08"/>
    </pattern>
  </defs>

  <rect width="1200" height="675" fill="url(#bg)"/>
  <rect width="1200" height="675" fill="url(#grid)"/>
  <ellipse cx="242" cy="194" rx="420" ry="280" fill="url(#glow)"/>
  <circle cx="1030" cy="96" r="220" fill="#ffffff" fill-opacity="0.09"/>
  <circle cx="930" cy="640" r="210" fill="#ffffff" fill-opacity="0.08"/>
  <rect x="860" y="-60" width="420" height="420" rx="210" fill="#ffffff" fill-opacity="0.06" transform="rotate(8 860 -60)"/>

  <rect x="64" y="64" width="1072" height="547" rx="24" fill="#ffffff" fill-opacity="0.08" stroke="#ffffff" stroke-opacity="0.25"/>

  <rect x="730" y="120" width="390" height="360" rx="20" fill="#ffffff" fill-opacity="0.12" stroke="#ffffff" stroke-opacity="0.25"/>
      <rect x="768" y="338" width="320" height="102" rx="12" fill="#E8FFE8" fill-opacity="0.17"/>
      <circle cx="832" cy="236" r="52" fill="#D6FDD6" fill-opacity="0.30"/>
      <path d="M832 204C852 204 868 220 868 240C868 272 832 298 832 298C832 298 796 272 796 240C796 220 812 204 832 204Z" fill="#BFF4C3" fill-opacity="0.76"/>
      <path d="M832 218V286" stroke="#93E3A1" stroke-width="6"/>
      <path d="M832 244C852 242 862 232 872 218" stroke="#93E3A1" stroke-width="5" stroke-linecap="round"/>
      <path d="M832 258C812 254 800 246 790 234" stroke="#93E3A1" stroke-width="5" stroke-linecap="round"/>
      <rect x="928" y="188" width="132" height="118" rx="10" fill="#D6FDD6" fill-opacity="0.24"/>
      <line x1="952" y1="222" x2="1036" y2="222" stroke="#B0EEBC" stroke-width="5"/>
      <line x1="952" y1="248" x2="1024" y2="248" stroke="#B0EEBC" stroke-width="5"/>
      <line x1="952" y1="274" x2="1008" y2="274" stroke="#B0EEBC" stroke-width="5"/>

  <rect x="104" y="102" width="280" height="52" rx="26" fill="#ffffff" fill-opacity="0.18"/>
  <text x="244" y="136" fill="#E6F8FF" font-family="Arial, Helvetica, sans-serif" font-size="24" font-weight="700" text-anchor="middle">AUDITORIA INTERNA</text>

  <rect x="404" y="102" width="280" height="52" rx="26" fill="#ffffff" fill-opacity="0.14"/>
  <text x="544" y="136" fill="#F1FBFF" font-family="Arial, Helvetica, sans-serif" font-size="22" font-weight="700" text-anchor="middle">NÍVEL INTERMEDIÁRIO</text>

  <text x="104" y="258" fill="#ffffff" font-family="Arial, Helvetica, sans-serif" font-size="56" font-weight="800">Curso Auditor Interno ISO 14001</text>
  

  <text x="104" y="414" fill="#D7F3FF" font-family="Arial, Helvetica, sans-serif" font-size="33" font-weight="500">Formação de Auditor Interno em Gestão Ambiental</text>

  <text x="104" y="458" fill="#E8FBFF" font-family="Arial, Helvetica, sans-serif" font-size="26" font-weight="600">Cenário: Auditor avaliando requisitos de gestão ambiental</text>

  <rect x="104" y="492" width="992" height="2" fill="#ffffff" fill-opacity="0.35"/>

  <text x="104" y="548" fill="#ffffff" font-family="Arial, Helvetica, sans-serif" font-size="30" font-weight="700">ISOAcademy</text>
  <text x="104" y="586" fill="#D7F3FF" font-family="Arial, Helvetica, sans-serif" font-size="24">Especialização em Normas e Sistemas de Gestão</text>

  <text x="1096" y="586" fill="#D7F3FF" font-family="Arial, Helvetica, sans-serif" font-size="22" text-anchor="end">auditor-interno-14001</text>
</svg>