<?xml version="1.0" encoding="UTF-8"?>
<svg width="1200" height="675" viewBox="0 0 1200 675" fill="none" xmlns="http://www.w3.org/2000/svg">
  <defs>
    <linearGradient id="bg" x1="0" y1="0" x2="1200" y2="675" gradientUnits="userSpaceOnUse">
      <stop stop-color="#111827"/>
      <stop offset="1" stop-color="#1D4ED8"/>
    </linearGradient>
  </defs>

  <rect width="1200" height="675" fill="url(#bg)"/>
  <circle cx="1030" cy="96" r="220" fill="#ffffff" fill-opacity="0.09"/>
  <circle cx="930" cy="640" r="210" fill="#ffffff" fill-opacity="0.08"/>

  <rect x="64" y="64" width="1072" height="547" rx="24" fill="#ffffff" fill-opacity="0.08" stroke="#ffffff" stroke-opacity="0.25"/>

  <rect x="730" y="120" width="390" height="360" rx="20" fill="#ffffff" fill-opacity="0.12" stroke="#ffffff" stroke-opacity="0.25"/>
      <rect x="768" y="326" width="310" height="110" rx="12" fill="#E9FAFF" fill-opacity="0.16"/>
      <rect x="804" y="190" width="130" height="96" rx="10" fill="#E9FAFF" fill-opacity="0.30"/>
      <rect x="956" y="190" width="94" height="64" rx="8" fill="#E9FAFF" fill-opacity="0.26"/>
      <line x1="820" y1="214" x2="915" y2="214" stroke="#D1F4FF" stroke-width="5"/>
      <line x1="820" y1="236" x2="900" y2="236" stroke="#D1F4FF" stroke-width="5"/>
      <line x1="820" y1="258" x2="880" y2="258" stroke="#D1F4FF" stroke-width="5"/>
      <circle cx="1002" cy="289" r="22" fill="#E9FAFF" fill-opacity="0.28"/>
      <rect x="988" y="307" width="28" height="42" rx="8" fill="#E9FAFF" fill-opacity="0.28"/>

  <rect x="104" y="102" width="280" height="52" rx="26" fill="#ffffff" fill-opacity="0.18"/>
  <text x="244" y="136" fill="#E6F8FF" font-family="Arial, Helvetica, sans-serif" font-size="24" font-weight="700" text-anchor="middle">AUDITORIA LÍDER</text>

  <text x="104" y="258" fill="#ffffff" font-family="Arial, Helvetica, sans-serif" font-size="66" font-weight="800">Curso Auditor Líder ISO 14001</text>
  

  <text x="104" y="414" fill="#D7F3FF" font-family="Arial, Helvetica, sans-serif" font-size="33" font-weight="500">Formação de Auditor Líder em Gestão Ambiental</text>

  <text x="104" y="458" fill="#E8FBFF" font-family="Arial, Helvetica, sans-serif" font-size="26" font-weight="600">Cenário: Auditor líder conduzindo avaliação ambiental estratégica</text>

  <rect x="104" y="492" width="992" height="2" fill="#ffffff" fill-opacity="0.35"/>

  <text x="104" y="548" fill="#ffffff" font-family="Arial, Helvetica, sans-serif" font-size="30" font-weight="700">ISOAcademy</text>
  <text x="104" y="586" fill="#D7F3FF" font-family="Arial, Helvetica, sans-serif" font-size="24">Especialização em Normas e Sistemas de Gestão</text>

  <text x="1096" y="586" fill="#D7F3FF" font-family="Arial, Helvetica, sans-serif" font-size="22" text-anchor="end">auditor-lider-14001</text>
</svg>