<?xml version="1.0" encoding="UTF-8"?>
<svg width="1200" height="675" viewBox="0 0 1200 675" fill="none" xmlns="http://www.w3.org/2000/svg">
  <defs>
    <linearGradient id="bg" x1="0" y1="0" x2="1200" y2="675" gradientUnits="userSpaceOnUse">
      <stop stop-color="#1E293B"/>
      <stop offset="1" stop-color="#2563EB"/>
    </linearGradient>
  </defs>

  <rect width="1200" height="675" fill="url(#bg)"/>
  <circle cx="1030" cy="96" r="220" fill="#ffffff" fill-opacity="0.09"/>
  <circle cx="930" cy="640" r="210" fill="#ffffff" fill-opacity="0.08"/>

  <rect x="64" y="64" width="1072" height="547" rx="24" fill="#ffffff" fill-opacity="0.08" stroke="#ffffff" stroke-opacity="0.25"/>

  <rect x="730" y="120" width="390" height="360" rx="20" fill="#ffffff" fill-opacity="0.12" stroke="#ffffff" stroke-opacity="0.25"/>
      <rect x="786" y="192" width="286" height="174" rx="12" fill="#EAF9FF" fill-opacity="0.28"/>
      <line x1="816" y1="334" x2="1038" y2="334" stroke="#CFEFFF" stroke-width="4"/>
      <line x1="816" y1="334" x2="816" y2="218" stroke="#CFEFFF" stroke-width="4"/>
      <polyline points="834,308 888,286 942,294 996,250 1030,262" fill="none" stroke="#B8E9FF" stroke-width="6"/>
      <circle cx="888" cy="286" r="6" fill="#B8E9FF"/>
      <circle cx="996" cy="250" r="6" fill="#B8E9FF"/>
      <rect x="768" y="380" width="320" height="56" rx="12" fill="#EAF9FF" fill-opacity="0.16"/>

  <rect x="104" y="102" width="280" height="52" rx="26" fill="#ffffff" fill-opacity="0.18"/>
  <text x="244" y="136" fill="#E6F8FF" font-family="Arial, Helvetica, sans-serif" font-size="24" font-weight="700" text-anchor="middle">QUALIDADE</text>

  <text x="104" y="258" fill="#ffffff" font-family="Arial, Helvetica, sans-serif" font-size="66" font-weight="800">Curso Controle Estatístico de Processo (C…</text>
  <text x="104" y="328" fill="#ffffff" font-family="Arial, Helvetica, sans-serif" font-size="60" font-weight="700">de Processo (CEP)</text>

  <text x="104" y="414" fill="#D7F3FF" font-family="Arial, Helvetica, sans-serif" font-size="33" font-weight="500">CEP Aplicado à Melhoria da Qualidade</text>

  <text x="104" y="458" fill="#E8FBFF" font-family="Arial, Helvetica, sans-serif" font-size="26" font-weight="600">Cenário: Controle estatístico e estabilidade de processo</text>

  <rect x="104" y="492" width="992" height="2" fill="#ffffff" fill-opacity="0.35"/>

  <text x="104" y="548" fill="#ffffff" font-family="Arial, Helvetica, sans-serif" font-size="30" font-weight="700">ISOAcademy</text>
  <text x="104" y="586" fill="#D7F3FF" font-family="Arial, Helvetica, sans-serif" font-size="24">Especialização em Normas e Sistemas de Gestão</text>

  <text x="1096" y="586" fill="#D7F3FF" font-family="Arial, Helvetica, sans-serif" font-size="22" text-anchor="end">cep-controle-estatistico-processo</text>
</svg>