<?xml version="1.0" encoding="UTF-8"?>
<svg width="1200" height="675" viewBox="0 0 1200 675" fill="none" xmlns="http://www.w3.org/2000/svg">
  <defs>
    <linearGradient id="bg" x1="0" y1="0" x2="1200" y2="675" gradientUnits="userSpaceOnUse">
      <stop stop-color="#14532D"/>
      <stop offset="1" stop-color="#0F766E"/>
    </linearGradient>
  </defs>

  <rect width="1200" height="675" fill="url(#bg)"/>
  <circle cx="1030" cy="96" r="220" fill="#ffffff" fill-opacity="0.09"/>
  <circle cx="930" cy="640" r="210" fill="#ffffff" fill-opacity="0.08"/>

  <rect x="64" y="64" width="1072" height="547" rx="24" fill="#ffffff" fill-opacity="0.08" stroke="#ffffff" stroke-opacity="0.25"/>

  <rect x="730" y="120" width="390" height="360" rx="20" fill="#ffffff" fill-opacity="0.12" stroke="#ffffff" stroke-opacity="0.25"/>
      <rect x="768" y="328" width="320" height="112" rx="12" fill="#ECFFEF" fill-opacity="0.16"/>
      <rect x="792" y="244" width="88" height="84" fill="#D7FDDC" fill-opacity="0.30"/>
      <rect x="888" y="224" width="100" height="104" fill="#D7FDDC" fill-opacity="0.30"/>
      <rect x="996" y="266" width="68" height="62" fill="#D7FDDC" fill-opacity="0.30"/>
      <circle cx="838" cy="212" r="22" fill="#C8F9D0" fill-opacity="0.8"/>
      <circle cx="1008" cy="214" r="22" fill="#C8F9D0" fill-opacity="0.8"/>
      <path d="M838 200C846 200 852 206 852 214C852 225 838 236 838 236C838 236 824 225 824 214C824 206 830 200 838 200Z" fill="#9EEAA8"/>
      <path d="M1008 202C1016 202 1022 208 1022 216C1022 227 1008 238 1008 238C1008 238 994 227 994 216C994 208 1000 202 1008 202Z" fill="#9EEAA8"/>

  <rect x="104" y="102" width="280" height="52" rx="26" fill="#ffffff" fill-opacity="0.18"/>
  <text x="244" y="136" fill="#E6F8FF" font-family="Arial, Helvetica, sans-serif" font-size="24" font-weight="700" text-anchor="middle">IMPLANTAÇÃO</text>

  <text x="104" y="258" fill="#ffffff" font-family="Arial, Helvetica, sans-serif" font-size="66" font-weight="800">Curso Como Implantar a ISO 22001</text>
  <text x="104" y="328" fill="#ffffff" font-family="Arial, Helvetica, sans-serif" font-size="60" font-weight="700">a ISO 22001</text>

  <text x="104" y="414" fill="#D7F3FF" font-family="Arial, Helvetica, sans-serif" font-size="33" font-weight="500">Implantação de Sistema de Segurança de Alimentos</text>

  <text x="104" y="458" fill="#E8FBFF" font-family="Arial, Helvetica, sans-serif" font-size="26" font-weight="600">Cenário: Implantação de sistema de segurança de alimentos</text>

  <rect x="104" y="492" width="992" height="2" fill="#ffffff" fill-opacity="0.35"/>

  <text x="104" y="548" fill="#ffffff" font-family="Arial, Helvetica, sans-serif" font-size="30" font-weight="700">ISOAcademy</text>
  <text x="104" y="586" fill="#D7F3FF" font-family="Arial, Helvetica, sans-serif" font-size="24">Especialização em Normas e Sistemas de Gestão</text>

  <text x="1096" y="586" fill="#D7F3FF" font-family="Arial, Helvetica, sans-serif" font-size="22" text-anchor="end">implantacao-22001</text>
</svg>