<?xml version="1.0" encoding="UTF-8"?>
<svg width="1200" height="675" viewBox="0 0 1200 675" fill="none" xmlns="http://www.w3.org/2000/svg">
  <defs>
    <linearGradient id="bg" x1="0" y1="0" x2="1200" y2="675" gradientUnits="userSpaceOnUse">
      <stop stop-color="#14532D"/>
      <stop offset="1" stop-color="#0F766E"/>
    </linearGradient>
  </defs>

  <rect width="1200" height="675" fill="url(#bg)"/>
  <circle cx="1030" cy="96" r="220" fill="#ffffff" fill-opacity="0.09"/>
  <circle cx="930" cy="640" r="210" fill="#ffffff" fill-opacity="0.08"/>

  <rect x="64" y="64" width="1072" height="547" rx="24" fill="#ffffff" fill-opacity="0.08" stroke="#ffffff" stroke-opacity="0.25"/>

  <rect x="730" y="120" width="390" height="360" rx="20" fill="#ffffff" fill-opacity="0.12" stroke="#ffffff" stroke-opacity="0.25"/>
      <rect x="768" y="340" width="320" height="98" rx="12" fill="#FFF4E5" fill-opacity="0.16"/>
      <rect x="790" y="188" width="128" height="92" rx="10" fill="#FFE9C9" fill-opacity="0.28"/>
      <line x1="810" y1="212" x2="900" y2="212" stroke="#FFE3B4" stroke-width="5"/>
      <line x1="810" y1="236" x2="888" y2="236" stroke="#FFE3B4" stroke-width="5"/>
      <circle cx="1008" cy="236" r="52" fill="#FFE9C9" fill-opacity="0.28"/>
      <rect x="990" y="226" width="36" height="44" rx="8" fill="#FFDCA3" fill-opacity="0.8"/>
      <path d="M998 226V214C998 205 1004 198 1008 198C1012 198 1018 205 1018 214V226" stroke="#FFDCA3" stroke-width="6"/>

  <rect x="104" y="102" width="280" height="52" rx="26" fill="#ffffff" fill-opacity="0.18"/>
  <text x="244" y="136" fill="#E6F8FF" font-family="Arial, Helvetica, sans-serif" font-size="24" font-weight="700" text-anchor="middle">IMPLANTAÇÃO</text>

  <text x="104" y="258" fill="#ffffff" font-family="Arial, Helvetica, sans-serif" font-size="66" font-weight="800">Curso Como Implantar a ISO 37001</text>
  <text x="104" y="328" fill="#ffffff" font-family="Arial, Helvetica, sans-serif" font-size="60" font-weight="700">a ISO 37001</text>

  <text x="104" y="414" fill="#D7F3FF" font-family="Arial, Helvetica, sans-serif" font-size="33" font-weight="500">Implantação de Sistema de Gestão Antissuborno</text>

  <text x="104" y="458" fill="#E8FBFF" font-family="Arial, Helvetica, sans-serif" font-size="26" font-weight="600">Cenário: Implantação prática de controles antissuborno</text>

  <rect x="104" y="492" width="992" height="2" fill="#ffffff" fill-opacity="0.35"/>

  <text x="104" y="548" fill="#ffffff" font-family="Arial, Helvetica, sans-serif" font-size="30" font-weight="700">ISOAcademy</text>
  <text x="104" y="586" fill="#D7F3FF" font-family="Arial, Helvetica, sans-serif" font-size="24">Especialização em Normas e Sistemas de Gestão</text>

  <text x="1096" y="586" fill="#D7F3FF" font-family="Arial, Helvetica, sans-serif" font-size="22" text-anchor="end">implantacao-37001</text>
</svg>