<?xml version="1.0" encoding="UTF-8"?>
<svg width="1200" height="675" viewBox="0 0 1200 675" fill="none" xmlns="http://www.w3.org/2000/svg">
  <defs>
    <linearGradient id="bg" x1="0" y1="0" x2="1200" y2="675" gradientUnits="userSpaceOnUse">
      <stop stop-color="#1E3A8A"/>
      <stop offset="1" stop-color="#0EA5E9"/>
    </linearGradient>
    <radialGradient id="glow" cx="0" cy="0" r="1" gradientUnits="userSpaceOnUse" gradientTransform="translate(248 190) rotate(28) scale(460 300)">
      <stop stop-color="#FFFFFF" stop-opacity="0.35"/>
      <stop offset="1" stop-color="#FFFFFF" stop-opacity="0"/>
    </radialGradient>
    <pattern id="grid" width="26" height="26" patternUnits="userSpaceOnUse">
      <path d="M26 0H0V26" fill="none" stroke="#FFFFFF" stroke-opacity="0.08"/>
    </pattern>
  </defs>

  <rect width="1200" height="675" fill="url(#bg)"/>
  <rect width="1200" height="675" fill="url(#grid)"/>
  <ellipse cx="242" cy="194" rx="420" ry="280" fill="url(#glow)"/>
  <circle cx="1030" cy="96" r="220" fill="#ffffff" fill-opacity="0.09"/>
  <circle cx="930" cy="640" r="210" fill="#ffffff" fill-opacity="0.08"/>
  <rect x="860" y="-60" width="420" height="420" rx="210" fill="#ffffff" fill-opacity="0.06" transform="rotate(8 860 -60)"/>

  <rect x="64" y="64" width="1072" height="547" rx="24" fill="#ffffff" fill-opacity="0.08" stroke="#ffffff" stroke-opacity="0.25"/>

  <rect x="730" y="120" width="390" height="360" rx="20" fill="#ffffff" fill-opacity="0.12" stroke="#ffffff" stroke-opacity="0.25"/>
      <rect x="790" y="180" width="280" height="180" rx="12" fill="#EAF8FF" fill-opacity="0.30"/>
      <rect x="820" y="206" width="220" height="116" rx="8" fill="#D7F2FF" fill-opacity="0.62"/>
      <line x1="842" y1="236" x2="1008" y2="236" stroke="#BFEAFF" stroke-width="5"/>
      <line x1="842" y1="264" x2="988" y2="264" stroke="#BFEAFF" stroke-width="5"/>
      <line x1="842" y1="292" x2="962" y2="292" stroke="#BFEAFF" stroke-width="5"/>
      <rect x="768" y="384" width="320" height="52" rx="12" fill="#EAF8FF" fill-opacity="0.16"/>

  <rect x="104" y="102" width="280" height="52" rx="26" fill="#ffffff" fill-opacity="0.18"/>
  <text x="244" y="136" fill="#E6F8FF" font-family="Arial, Helvetica, sans-serif" font-size="24" font-weight="700" text-anchor="middle">INTRODUÇÃO</text>

  <rect x="404" y="102" width="280" height="52" rx="26" fill="#ffffff" fill-opacity="0.14"/>
  <text x="544" y="136" fill="#F1FBFF" font-family="Arial, Helvetica, sans-serif" font-size="22" font-weight="700" text-anchor="middle">NÍVEL BÁSICO</text>

  <text x="104" y="258" fill="#ffffff" font-family="Arial, Helvetica, sans-serif" font-size="56" font-weight="800">Curso Introdução à ISO 14300-1-2</text>
  

  <text x="104" y="414" fill="#D7F3FF" font-family="Arial, Helvetica, sans-serif" font-size="33" font-weight="500">Conceitos Iniciais da ISO 14300-1-2</text>

  <text x="104" y="458" fill="#E8FBFF" font-family="Arial, Helvetica, sans-serif" font-size="26" font-weight="600">Cenário: Introdução orientada aos requisitos da norma</text>

  <rect x="104" y="492" width="992" height="2" fill="#ffffff" fill-opacity="0.35"/>

  <text x="104" y="548" fill="#ffffff" font-family="Arial, Helvetica, sans-serif" font-size="30" font-weight="700">ISOAcademy</text>
  <text x="104" y="586" fill="#D7F3FF" font-family="Arial, Helvetica, sans-serif" font-size="24">Especialização em Normas e Sistemas de Gestão</text>

  <text x="1096" y="586" fill="#D7F3FF" font-family="Arial, Helvetica, sans-serif" font-size="22" text-anchor="end">introducao-14300-1-2</text>
</svg>