<?xml version="1.0" encoding="UTF-8"?>
<svg width="1200" height="675" viewBox="0 0 1200 675" fill="none" xmlns="http://www.w3.org/2000/svg">
  <defs>
    <linearGradient id="bg" x1="0" y1="0" x2="1200" y2="675" gradientUnits="userSpaceOnUse">
      <stop stop-color="#0B2A4A"/>
      <stop offset="1" stop-color="#1E40AF"/>
    </linearGradient>
  </defs>

  <rect width="1200" height="675" fill="url(#bg)"/>
  <circle cx="1030" cy="96" r="220" fill="#ffffff" fill-opacity="0.09"/>
  <circle cx="930" cy="640" r="210" fill="#ffffff" fill-opacity="0.08"/>

  <rect x="64" y="64" width="1072" height="547" rx="24" fill="#ffffff" fill-opacity="0.08" stroke="#ffffff" stroke-opacity="0.25"/>

  <rect x="730" y="120" width="390" height="360" rx="20" fill="#ffffff" fill-opacity="0.12" stroke="#ffffff" stroke-opacity="0.25"/>
      <rect x="760" y="340" width="330" height="110" rx="10" fill="#DDF3FF" fill-opacity="0.18"/>
      <rect x="785" y="270" width="80" height="70" fill="#DDF3FF" fill-opacity="0.28"/>
      <rect x="875" y="240" width="85" height="100" fill="#DDF3FF" fill-opacity="0.28"/>
      <rect x="972" y="290" width="80" height="50" fill="#DDF3FF" fill-opacity="0.28"/>
      <rect x="795" y="186" width="86" height="64" rx="8" fill="#E9FAFF" fill-opacity="0.35"/>
      <line x1="810" y1="206" x2="865" y2="206" stroke="#C7F0FF" stroke-width="4"/>
      <line x1="810" y1="220" x2="855" y2="220" stroke="#C7F0FF" stroke-width="4"/>
      <circle cx="980" cy="205" r="32" fill="#E9FAFF" fill-opacity="0.30"/>
      <path d="M965 205L977 217L998 194" stroke="#C7F0FF" stroke-width="6" stroke-linecap="round" stroke-linejoin="round"/>

  <rect x="104" y="102" width="280" height="52" rx="26" fill="#ffffff" fill-opacity="0.18"/>
  <text x="244" y="136" fill="#E6F8FF" font-family="Arial, Helvetica, sans-serif" font-size="24" font-weight="700" text-anchor="middle">NORMAS ISO</text>

  <text x="104" y="258" fill="#ffffff" font-family="Arial, Helvetica, sans-serif" font-size="66" font-weight="800">ISO 9001:2015</text>
  

  <text x="104" y="414" fill="#D7F3FF" font-family="Arial, Helvetica, sans-serif" font-size="33" font-weight="500">Sistema de Gestão da Qualidade (SGQ)</text>

  <text x="104" y="458" fill="#E8FBFF" font-family="Arial, Helvetica, sans-serif" font-size="26" font-weight="600">Cenário: Sistema de gestão da qualidade em ambiente produtivo</text>

  <rect x="104" y="492" width="992" height="2" fill="#ffffff" fill-opacity="0.35"/>

  <text x="104" y="548" fill="#ffffff" font-family="Arial, Helvetica, sans-serif" font-size="30" font-weight="700">ISOAcademy</text>
  <text x="104" y="586" fill="#D7F3FF" font-family="Arial, Helvetica, sans-serif" font-size="24">Especialização em Normas e Sistemas de Gestão</text>

  <text x="1096" y="586" fill="#D7F3FF" font-family="Arial, Helvetica, sans-serif" font-size="22" text-anchor="end">iso-9001</text>
</svg>