<?xml version="1.0" encoding="UTF-8"?>
<svg width="1200" height="675" viewBox="0 0 1200 675" fill="none" xmlns="http://www.w3.org/2000/svg">
  <defs>
    <linearGradient id="bg" x1="0" y1="0" x2="1200" y2="675" gradientUnits="userSpaceOnUse">
      <stop stop-color="#0B2A4A"/>
      <stop offset="1" stop-color="#1E40AF"/>
    </linearGradient>
  </defs>

  <rect width="1200" height="675" fill="url(#bg)"/>
  <circle cx="1030" cy="96" r="220" fill="#ffffff" fill-opacity="0.09"/>
  <circle cx="930" cy="640" r="210" fill="#ffffff" fill-opacity="0.08"/>

  <rect x="64" y="64" width="1072" height="547" rx="24" fill="#ffffff" fill-opacity="0.08" stroke="#ffffff" stroke-opacity="0.25"/>

  <rect x="730" y="120" width="390" height="360" rx="20" fill="#ffffff" fill-opacity="0.12" stroke="#ffffff" stroke-opacity="0.25"/>
      <rect x="760" y="344" width="330" height="100" rx="12" fill="#E8F8FF" fill-opacity="0.16"/>
      <circle cx="835" cy="226" r="45" fill="#E8F8FF" fill-opacity="0.30"/>
      <rect x="822" y="202" width="26" height="48" fill="#CFF3FF"/>
      <rect x="810" y="214" width="50" height="24" fill="#CFF3FF"/>
      <rect x="920" y="186" width="140" height="120" rx="10" fill="#E8F8FF" fill-opacity="0.26"/>
      <line x1="940" y1="218" x2="1038" y2="218" stroke="#CFF3FF" stroke-width="5"/>
      <line x1="940" y1="242" x2="1020" y2="242" stroke="#CFF3FF" stroke-width="5"/>
      <line x1="940" y1="266" x2="1000" y2="266" stroke="#CFF3FF" stroke-width="5"/>

  <rect x="104" y="102" width="280" height="52" rx="26" fill="#ffffff" fill-opacity="0.18"/>
  <text x="244" y="136" fill="#E6F8FF" font-family="Arial, Helvetica, sans-serif" font-size="24" font-weight="700" text-anchor="middle">NORMAS ISO</text>

  <text x="104" y="258" fill="#ffffff" font-family="Arial, Helvetica, sans-serif" font-size="66" font-weight="800">ISO 13485:2016</text>
  

  <text x="104" y="414" fill="#D7F3FF" font-family="Arial, Helvetica, sans-serif" font-size="33" font-weight="500">Sistema de Gestão da Qualidade para Dispositivos Médicos</text>

  <text x="104" y="458" fill="#E8FBFF" font-family="Arial, Helvetica, sans-serif" font-size="26" font-weight="600">Cenário: Qualidade e rastreabilidade para dispositivos médicos</text>

  <rect x="104" y="492" width="992" height="2" fill="#ffffff" fill-opacity="0.35"/>

  <text x="104" y="548" fill="#ffffff" font-family="Arial, Helvetica, sans-serif" font-size="30" font-weight="700">ISOAcademy</text>
  <text x="104" y="586" fill="#D7F3FF" font-family="Arial, Helvetica, sans-serif" font-size="24">Especialização em Normas e Sistemas de Gestão</text>

  <text x="1096" y="586" fill="#D7F3FF" font-family="Arial, Helvetica, sans-serif" font-size="22" text-anchor="end">iso-13485</text>
</svg>