<?xml version="1.0" encoding="UTF-8"?>
<svg width="1200" height="675" viewBox="0 0 1200 675" fill="none" xmlns="http://www.w3.org/2000/svg">
  <defs>
    <linearGradient id="bg" x1="0" y1="0" x2="1200" y2="675" gradientUnits="userSpaceOnUse">
      <stop stop-color="#0B2A4A"/>
      <stop offset="1" stop-color="#1E40AF"/>
    </linearGradient>
    <radialGradient id="glow" cx="0" cy="0" r="1" gradientUnits="userSpaceOnUse" gradientTransform="translate(248 190) rotate(28) scale(460 300)">
      <stop stop-color="#FFFFFF" stop-opacity="0.35"/>
      <stop offset="1" stop-color="#FFFFFF" stop-opacity="0"/>
    </radialGradient>
    <pattern id="grid" width="26" height="26" patternUnits="userSpaceOnUse">
      <path d="M26 0H0V26" fill="none" stroke="#FFFFFF" stroke-opacity="0.08"/>
    </pattern>
  </defs>

  <rect width="1200" height="675" fill="url(#bg)"/>
  <rect width="1200" height="675" fill="url(#grid)"/>
  <ellipse cx="242" cy="194" rx="420" ry="280" fill="url(#glow)"/>
  <circle cx="1030" cy="96" r="220" fill="#ffffff" fill-opacity="0.09"/>
  <circle cx="930" cy="640" r="210" fill="#ffffff" fill-opacity="0.08"/>
  <rect x="860" y="-60" width="420" height="420" rx="210" fill="#ffffff" fill-opacity="0.06" transform="rotate(8 860 -60)"/>

  <rect x="64" y="64" width="1072" height="547" rx="24" fill="#ffffff" fill-opacity="0.08" stroke="#ffffff" stroke-opacity="0.25"/>

  <rect x="730" y="120" width="390" height="360" rx="20" fill="#ffffff" fill-opacity="0.12" stroke="#ffffff" stroke-opacity="0.25"/>
      <rect x="812" y="174" width="200" height="258" rx="12" fill="#EAF9FF" fill-opacity="0.32"/>
      <line x1="848" y1="220" x2="980" y2="220" stroke="#CDEFFF" stroke-width="5"/>
      <line x1="848" y1="266" x2="980" y2="266" stroke="#CDEFFF" stroke-width="5"/>
      <line x1="848" y1="312" x2="980" y2="312" stroke="#CDEFFF" stroke-width="5"/>
      <path d="M824 214L832 222L844 208" stroke="#CDEFFF" stroke-width="4" stroke-linecap="round" stroke-linejoin="round"/>
      <path d="M824 260L832 268L844 254" stroke="#CDEFFF" stroke-width="4" stroke-linecap="round" stroke-linejoin="round"/>
      <path d="M824 306L832 314L844 300" stroke="#CDEFFF" stroke-width="4" stroke-linecap="round" stroke-linejoin="round"/>

  <rect x="104" y="102" width="280" height="52" rx="26" fill="#ffffff" fill-opacity="0.18"/>
  <text x="244" y="136" fill="#E6F8FF" font-family="Arial, Helvetica, sans-serif" font-size="24" font-weight="700" text-anchor="middle">NORMAS ISO</text>

  <rect x="404" y="102" width="280" height="52" rx="26" fill="#ffffff" fill-opacity="0.14"/>
  <text x="544" y="136" fill="#F1FBFF" font-family="Arial, Helvetica, sans-serif" font-size="22" font-weight="700" text-anchor="middle">NÍVEL BÁSICO</text>

  <text x="104" y="258" fill="#ffffff" font-family="Arial, Helvetica, sans-serif" font-size="64" font-weight="800">ISO 19011:2018</text>
  

  <text x="104" y="414" fill="#D7F3FF" font-family="Arial, Helvetica, sans-serif" font-size="33" font-weight="500">Diretrizes para Auditoria de Sistemas de Gestão</text>

  <text x="104" y="458" fill="#E8FBFF" font-family="Arial, Helvetica, sans-serif" font-size="26" font-weight="600">Cenário: Diretrizes práticas para auditoria de sistemas de gestão</text>

  <rect x="104" y="492" width="992" height="2" fill="#ffffff" fill-opacity="0.35"/>

  <text x="104" y="548" fill="#ffffff" font-family="Arial, Helvetica, sans-serif" font-size="30" font-weight="700">ISOAcademy</text>
  <text x="104" y="586" fill="#D7F3FF" font-family="Arial, Helvetica, sans-serif" font-size="24">Especialização em Normas e Sistemas de Gestão</text>

  <text x="1096" y="586" fill="#D7F3FF" font-family="Arial, Helvetica, sans-serif" font-size="22" text-anchor="end">iso-19011</text>
</svg>